# xmcd
#
# Track frame offsets:
#	150
#	15422
#	31019
#	48021
#	63466
#	77960
#	91905
#	111644
#	127976
#	144223
#	160963
#	176480
#	177326
#	178193
#	179071
#	180239
#	181197
#	182107
#	182982
#	183898
#	184694
#	185485
#	186330
#	187480
#	188389
#	189254
#	190115
#	190979
#
# Disc length: 2559 seconds
#
# Revision: 1
# Processed by: cddbd v1.5.2PL0 Copyright (c) Steve Scherf et al.
# Submitted via: audiograbber 1.83.01
#
DISCID=8309fd1c
DTITLE=Various Artist - CDX 602
DYEAR=2014
DGENRE=Country
TTITLE0=Tyler Farr - A Guy Walks Into A Bar
TTITLE1=Brad Paisley - River Bank (Remix w. Colt Ford)
TTITLE2=Jake Owen - What We Ain't Got
TTITLE3=Kelleigh Bannen - You Are What You Love (Radio Edit)
TTITLE4=Montgomery Gentry - Headlights
TTITLE5=Tim Sweeney - Every Friday Night
TTITLE6=Of Rocks and Roots - Fade Out
TTITLE7=Tim Cadiere - Hop In My Truck
TTITLE8=Casi Joy - Old Town Lane
TTITLE9=Shelby County Line - Somethin' Bout You
TTITLE10=Ashliegh Lisset - Target On My Heart
TTITLE11=Kayla Adams - Home Town Country (Liner)
TTITLE12=Kayla Adams - Kickin' Country (Liner)
TTITLE13=Kayla Adams - More of the Country You Love (Liner)
TTITLE14=Kayla Adams - My New Single (Liner)
TTITLE15=Kayla Adams - Super Country Hits (Liner)
TTITLE16=Kayla Adams - The Best In Country (Liner)
TTITLE17=Kayla Adams - Today's Best Country (Liner)
TTITLE18=Kayla Adams - Today's Hot Country (Liner)
TTITLE19=Taria - Home Town Country (Liner)
TTITLE20=Taria - Kickin' Country (Liner)
TTITLE21=Taria - More of the Country You Love (Liner)
TTITLE22=Taria - My New Single (Liner)
TTITLE23=Taria - Super Country (Liner)
TTITLE24=Taria - The Best In Country (Liner)
TTITLE25=Taria - Today's Best Country (Liner)
TTITLE26=Taria - Today's Hot Country Music (Liner)
TTITLE27=Brandon Chase - The Fight To End Human Trafficking (PSA)
EXTD=
EXTT0=
EXTT1=
EXTT2=
EXTT3=
EXTT4=
EXTT5=
EXTT6=
EXTT7=
EXTT8=
EXTT9=
EXTT10=
EXTT11=
EXTT12=
EXTT13=
EXTT14=
EXTT15=
EXTT16=
EXTT17=
EXTT18=
EXTT19=
EXTT20=
EXTT21=
EXTT22=
EXTT23=
EXTT24=
EXTT25=
EXTT26=
EXTT27=
PLAYORDER=
